<svg width="35" height="35" viewBox="0 0 35 35" fill="none" xmlns="http://www.w3.org/2000/svg">
<g clip-path="url(#clip0_593_411)">
<path d="M24.3627 0.416504H10.5765C7.88267 0.41967 5.30015 1.49129 3.39552 3.39624C1.49089 5.30119 0.419705 7.88389 0.416992 10.5777L0.416992 24.3639C0.420158 27.0577 1.49178 29.6402 3.39673 31.5448C5.30168 33.4495 7.88438 34.5207 10.5782 34.5234H24.3644C27.0582 34.5202 29.6407 33.4486 31.5453 31.5436C33.45 29.6387 34.5212 27.056 34.5239 24.3622V10.576C34.5207 7.88218 33.4491 5.29966 31.5441 3.39503C29.6392 1.4904 27.0565 0.419217 24.3627 0.416504ZM31.0935 24.3622C31.0935 25.2461 30.9194 26.1214 30.5812 26.938C30.2429 27.7546 29.7471 28.4966 29.1221 29.1216C28.4971 29.7466 27.7551 30.2424 26.9385 30.5807C26.1219 30.9189 25.2466 31.093 24.3627 31.093H10.5765C8.79162 31.0926 7.08004 30.3833 5.81814 29.121C4.55623 27.8588 3.84733 26.147 3.84733 24.3622V10.576C3.84778 8.79113 4.55712 7.07956 5.81934 5.81765C7.08157 4.55574 8.79333 3.84684 10.5782 3.84684H24.3644C26.1492 3.84729 27.8608 4.55663 29.1227 5.81886C30.3846 7.08108 31.0935 8.79284 31.0935 10.5777V24.3622Z" fill="#F6FFDC"/>
<path d="M17.4698 8.64893C15.1318 8.65254 12.8907 9.58302 11.2376 11.2364C9.58457 12.8897 8.65453 15.1311 8.65137 17.4691C8.65408 19.8076 9.58416 22.0497 11.2376 23.7034C12.8911 25.3572 15.1329 26.2877 17.4715 26.2909C19.8104 26.2882 22.0526 25.3579 23.7065 23.704C25.3603 22.0502 26.2906 19.8079 26.2933 17.4691C26.2897 15.1305 25.3588 12.8888 23.7047 11.2357C22.0506 9.58254 19.8084 8.65289 17.4698 8.65063V8.64893ZM17.4698 22.8606C16.0403 22.8606 14.6694 22.2927 13.6586 21.2819C12.6478 20.2711 12.08 18.9002 12.08 17.4708C12.08 16.0413 12.6478 14.6704 13.6586 13.6596C14.6694 12.6488 16.0403 12.081 17.4698 12.081C18.8992 12.081 20.2702 12.6488 21.2809 13.6596C22.2917 14.6704 22.8596 16.0413 22.8596 17.4708C22.8596 18.9002 22.2917 20.2711 21.2809 21.2819C20.2702 22.2927 18.8992 22.8606 17.4698 22.8606Z" fill="#F6FFDC"/>
<path d="M26.3085 10.8287C27.4756 10.8287 28.4217 9.8826 28.4217 8.7155C28.4217 7.54841 27.4756 6.60229 26.3085 6.60229C25.1414 6.60229 24.1953 7.54841 24.1953 8.7155C24.1953 9.8826 25.1414 10.8287 26.3085 10.8287Z" fill="#F6FFDC"/>
</g>
<defs>
<clipPath id="clip0_593_411">
<rect width="35" height="35" fill="white"/>
</clipPath>
</defs>
</svg>
