<svg width="36" height="39" viewBox="0 0 36 39" fill="none" xmlns="http://www.w3.org/2000/svg">
<g id="LightGray">
<path id="Vector" d="M15.6376 0.143761C9.27657 1.23368 4.74432 7.61368 5.8045 13.9937C6.12255 16.014 6.97069 18.1407 7.84533 19.204L8.34892 19.8154L9.80666 18.6989C11.7415 17.2634 12.9077 16.6786 14.8955 16.2001C18.8447 15.2697 22.3167 16.0938 25.8948 18.7521C26.6635 19.3369 27.3261 19.7888 27.4056 19.7888C27.4851 19.7888 27.8562 19.2572 28.2537 18.5926C32.2294 11.7607 28.9428 2.85526 21.6011 0.569095C19.8253 0.0108448 17.4134 -0.148655 15.6376 0.143761ZM19.1627 4.13126C22.3962 5.00851 23.854 9.23526 21.8131 11.7607C19.4808 14.6583 15.7171 14.5785 13.6498 11.6012C11.98 9.18209 12.9872 5.75284 15.7171 4.47684C17.2544 3.75909 17.705 3.73251 19.1627 4.13126Z" fill="white"/>
<path id="Vector_2" d="M0.66261 17.5293C0.0795132 18.0876 0 18.4066 0 20.1079C0.0265044 25.2916 2.49141 29.9171 6.33455 31.9906C7.2092 32.4426 8.21636 33.1869 8.58742 33.6122C9.25003 34.4363 9.93915 36.9351 9.6741 37.6263C9.54158 37.9719 10.0452 38.0251 12.8281 37.9985H16.1412L16.3267 35.7655C16.6978 31.2995 15.8761 28.0297 14.0208 26.6208C13.5172 26.2752 11.8475 25.3448 10.3102 24.6271C7.10318 23.0852 5.61893 21.6763 4.39973 19.0711C4.00216 18.2205 3.47208 17.3698 3.23354 17.1837C2.54442 16.6521 1.35172 16.8116 0.66261 17.5293Z" fill="white"/>
<path id="Vector_3" d="M32.5475 17.1837C32.309 17.3698 31.8054 18.247 31.3813 19.0977C30.1091 21.8623 28.2273 23.5371 24.8082 24.9726C22.1578 26.0891 20.9916 27.0461 20.276 28.6411C19.4808 30.4222 19.2423 32.4691 19.4808 35.5528L19.6664 37.9984H22.8999L26.1599 38.025L26.1864 36.8022C26.2394 34.4363 27.0081 33.2666 29.4995 31.964C33.3426 29.8905 35.7545 25.3182 35.781 20.1078C35.781 18.4065 35.7015 18.0875 35.1184 17.5293C34.4293 16.8115 33.2366 16.652 32.5475 17.1837Z" fill="white"/>
</g>
</svg>
