<svg width="32" height="32" viewBox="0 0 32 32" fill="none" xmlns="http://www.w3.org/2000/svg">
<path d="M25.7615 7.41625C25.559 7.31159 25.3619 7.19687 25.1709 7.0725C24.6154 6.70528 24.1061 6.27259 23.654 5.78375C22.5228 4.48938 22.1003 3.17625 21.9446 2.25688H21.9509C21.8209 1.49375 21.8746 1 21.8828 1H16.7303V20.9237C16.7303 21.1912 16.7303 21.4556 16.719 21.7169C16.719 21.7494 16.7159 21.7794 16.714 21.8144C16.714 21.8288 16.714 21.8438 16.7109 21.8587V21.87C16.6566 22.5849 16.4274 23.2754 16.0436 23.8809C15.6597 24.4864 15.133 24.9884 14.5096 25.3425C13.86 25.7121 13.1252 25.906 12.3778 25.905C9.97714 25.905 8.03151 23.9475 8.03151 21.53C8.03151 19.1125 9.97714 17.155 12.3778 17.155C12.8322 17.1546 13.2838 17.2261 13.7159 17.3669L13.7221 12.1206C12.4105 11.9512 11.078 12.0554 9.80862 12.4268C8.53928 12.7981 7.36067 13.4285 6.34714 14.2781C5.45906 15.0498 4.71244 15.9704 4.14089 16.9988C3.92339 17.3738 3.10277 18.8806 3.00339 21.3263C2.94089 22.7144 3.35777 24.1525 3.55652 24.7469V24.7594C3.68152 25.1094 4.16589 26.3037 4.95527 27.3106C5.59179 28.1183 6.34382 28.8278 7.18714 29.4163V29.4037L7.19964 29.4163C9.69401 31.1112 12.4596 31 12.4596 31C12.9384 30.9806 14.5421 31 16.3634 30.1369C18.3834 29.18 19.5334 27.7544 19.5334 27.7544C20.2681 26.9025 20.8523 25.9318 21.2609 24.8838C21.7271 23.6581 21.8828 22.1881 21.8828 21.6006V11.0306C21.9453 11.0681 22.7778 11.6187 22.7778 11.6187C22.7778 11.6187 23.9771 12.3875 25.8484 12.8881C27.1909 13.2444 28.9996 13.3194 28.9996 13.3194V8.20438C28.3659 8.27313 27.079 8.07313 25.7615 7.41625Z" fill="#F6FFDC"/>
</svg>
